HIERARCHY
ROOT Hips
{
	OFFSET 54.006401 -17.140213 85.141403
	CHANNELS 6 Xposition Yposition Zposition Xrotation Yrotation Zrotation
	JOINT spine
	{
		OFFSET 0.000000 -0.367607 6.392601
		CHANNELS 3 Xrotation Yrotation Zrotation
		JOINT spine1
		{
			OFFSET 0.000000 -0.000002 9.176109
			CHANNELS 3 Xrotation Yrotation Zrotation
			JOINT spine2
			{
				OFFSET 0.000000 0.000000 8.792381
				CHANNELS 3 Xrotation Yrotation Zrotation
				JOINT Neck
				{
					OFFSET 0.000000 -1.076244 22.573708
					CHANNELS 3 Xrotation Yrotation Zrotation
					JOINT Head
					{
						OFFSET 0.000000 -0.000002 6.820114
						CHANNELS 3 Xrotation Yrotation Zrotation
						End Site
						{
							OFFSET 0.000000 5.444267 16.508499
						}
					}
				}
				JOINT RightShoulder
				{
					OFFSET -3.702209 0.515507 9.495087
					CHANNELS 3 Xrotation Yrotation Zrotation
					JOINT RightArm
					{
						OFFSET 0.000000 -0.000002 12.453697
						CHANNELS 3 Xrotation Yrotation Zrotation
						JOINT RightArmRoll
						{
							OFFSET 0.000000 -0.000002 6.286865
							CHANNELS 3 Xrotation Yrotation Zrotation
							JOINT RightForeArm
							{
								OFFSET 0.000000 -0.000002 18.311401
								CHANNELS 3 Xrotation Yrotation Zrotation
								JOINT RightForeArmRoll
								{
									OFFSET 0.000000 -0.000002 7.054825
									CHANNELS 3 Xrotation Yrotation Zrotation
									JOINT RightHand
									{
										OFFSET 0.000000 -0.000002 14.157501
										CHANNELS 3 Xrotation Yrotation Zrotation
										End Site
										{
											OFFSET 0.000000 0.000000 0.100006
										}
									}
								}
							}
						}
					}
				}
				JOINT LeftShoulder
				{
					OFFSET 3.702209 0.515507 9.495087
					CHANNELS 3 Xrotation Yrotation Zrotation
					JOINT LeftArm
					{
						OFFSET 0.000000 -0.000002 12.453697
						CHANNELS 3 Xrotation Yrotation Zrotation
						JOINT LeftArmRoll
						{
							OFFSET 0.000000 -0.000002 6.286865
							CHANNELS 3 Xrotation Yrotation Zrotation
							JOINT LeftForeArm
							{
								OFFSET 0.000000 -0.000002 18.311401
								CHANNELS 3 Xrotation Yrotation Zrotation
								JOINT LeftForeArmRoll
								{
									OFFSET 0.000000 -0.000002 7.054825
									CHANNELS 3 Xrotation Yrotation Zrotation
									JOINT LeftHand
									{
										OFFSET 0.000000 -0.000002 14.157501
										CHANNELS 3 Xrotation Yrotation Zrotation
										End Site
										{
											OFFSET 0.000000 0.000000 0.100006
										}
									}
								}
							}
						}
					}
				}
			}
		}
	}
	JOINT RightUpLeg
	{
		OFFSET -5.666161 0.871611 -1.039032
		CHANNELS 3 Xrotation Yrotation Zrotation
		JOINT RightUpLegRoll
		{
			OFFSET 0.000000 -0.000004 16.600502
			CHANNELS 3 Xrotation Yrotation Zrotation
			JOINT RightLeg
			{
				OFFSET 0.000000 0.000004 -20.557198
				CHANNELS 3 Xrotation Yrotation Zrotation
				JOINT RightLegRoll
				{
					OFFSET 0.000000 -0.000004 20.624397
					CHANNELS 3 Xrotation Yrotation Zrotation
					JOINT RightFoot
					{
						OFFSET 0.000000 -0.000002 17.166405
						CHANNELS 3 Xrotation Yrotation Zrotation
						JOINT RightToeBase
						{
							OFFSET 0.000000 -0.000002 14.350204
							CHANNELS 3 Xrotation Yrotation Zrotation
							End Site
							{
								OFFSET 0.006081 0.801059 6.949707
							}
						}
					}
				}
			}
		}
	}
	JOINT LeftUpLeg
	{
		OFFSET 5.666161 0.871611 -1.039032
		CHANNELS 3 Xrotation Yrotation Zrotation
		JOINT LeftUpLegRoll
		{
			OFFSET 0.000000 -0.000004 16.600601
			CHANNELS 3 Xrotation Yrotation Zrotation
			JOINT LeftLeg
			{
				OFFSET 0.000000 -0.000002 20.557098
				CHANNELS 3 Xrotation Yrotation Zrotation
				JOINT LeftLegRoll
				{
					OFFSET 0.000000 -0.000004 20.815094
					CHANNELS 3 Xrotation Yrotation Zrotation
					JOINT LeftFoot
					{
						OFFSET 0.000000 -0.000004 16.975708
						CHANNELS 3 Xrotation Yrotation Zrotation
						JOINT LeftToeBase
						{
							OFFSET 0.000000 -0.000002 14.350204
							CHANNELS 3 Xrotation Yrotation Zrotation
							End Site
							{
								OFFSET -0.027260 0.801059 6.949707
							}
						}
					}
				}
			}
		}
	}
}
MOTION
Frames: 13
Frame Time: 0.041667
50.549198 -14.804915 85.876297 -3.845953 2.131134 -1.896147 -0.968405 -0.082026 -0.010076 2.065979 -0.171742 -0.009047 3.711067 -0.171910 -0.007041 9.715621 -1.567729 0.574495 4.789800 -0.282907 0.821280 -7.149786 -58.721097 -8.395970 -34.808587 -114.656473 -27.493808 -0.000001 0.000000 -0.000005 7.824100 -13.173295 0.415316 -0.000006 0.000001 -2.999990 -5.000209 -7.998724 0.000178 -5.677234 52.857990 6.123504 -35.993816 113.668397 32.624808 0.000001 0.000002 0.000005 7.258832 11.020075 -0.142569 -0.000000 0.000005 3.000001 -5.000200 7.998733 -0.000160 3.411373 -176.203718 0.854007 -179.999991 0.000004 -1.163996 175.250141 -2.982737 -0.472721 -0.000001 0.000000 0.043605 69.019765 6.909923 2.080745 25.456950 -7.355408 0.000001 4.443152 173.400717 -1.374815 -0.000005 -0.000004 -1.184290 -5.244420 1.474275 0.499538 0.000000 -0.000000 -0.071844 70.058937 -6.823026 -2.262442 25.457162 7.355617 -0.007784 
50.547001 -14.804516 85.874901 -3.846341 2.129457 -1.897285 -0.968399 -0.082389 -0.009379 2.065999 -0.171940 -0.008300 3.711087 -0.172094 -0.006288 9.708896 -1.569437 0.572732 4.800056 -0.281793 0.819534 -7.151851 -58.716561 -8.398063 -34.792157 -114.661336 -27.500520 -0.000001 -0.000001 -0.000003 7.859312 -13.183027 0.420461 -0.000005 0.000001 -2.999990 -5.000212 -7.998724 0.000178 -5.682648 52.859234 6.130247 -36.013398 113.672468 32.648215 0.000000 0.000003 0.000005 7.252236 11.022715 -0.142098 -0.000001 0.000005 3.000000 -5.000199 7.998733 -0.000161 3.409185 -176.199715 0.858288 -179.999991 0.000005 -1.163995 175.248229 -2.986717 -0.473151 -0.000001 0.000000 0.043605 69.019137 6.909923 2.080785 25.456948 -7.355407 0.000001 4.444163 173.402725 -1.373246 -0.000005 -0.000004 -1.184290 -5.242079 1.473842 0.499634 0.000000 -0.000001 -0.071844 70.057585 -6.822787 -2.261381 25.457160 7.355619 -0.007786 
50.549702 -14.803417 85.877510 -3.846715 2.127740 -1.898336 -0.968393 -0.082770 -0.008649 2.066009 -0.172168 -0.007524 3.711097 -0.172308 -0.005505 9.702063 -1.571440 0.570848 4.810489 -0.280499 0.817677 -7.154146 -58.712012 -8.400430 -34.777383 -114.665475 -27.508549 -0.000001 0.000001 -0.000004 7.893796 -13.192576 0.425516 -0.000007 0.000001 -2.999991 -5.000211 -7.998724 0.000178 -5.688029 52.860480 6.136946 -36.033394 113.676648 32.672193 0.000001 0.000001 0.000006 7.245390 11.025359 -0.141629 0.000001 0.000005 3.000001 -5.000203 7.998734 -0.000160 3.406949 -176.194715 0.862595 -179.999991 0.000005 -1.163995 175.246289 -2.990697 -0.472587 -0.000001 0.000000 0.043605 69.018597 6.909892 2.080813 25.456948 -7.355407 0.000001 4.445142 173.404706 -1.371626 -0.000005 -0.000004 -1.184290 -5.239727 1.473399 0.499776 0.000000 -0.000001 -0.071844 70.056123 -6.822540 -2.260429 25.457157 7.355618 -0.007785 
50.569599 -14.802914 85.873192 -3.847060 2.126003 -1.899340 -0.968383 -0.083163 -0.007895 2.066030 -0.172417 -0.006728 3.711117 -0.172542 -0.004701 9.695160 -1.573641 0.568880 4.821040 -0.279076 0.815740 -7.156633 -58.707559 -8.403017 -34.761370 -114.670448 -27.514866 -0.000001 -0.000001 -0.000004 7.927771 -13.202035 0.430523 -0.000006 0.000001 -2.999990 -5.000213 -7.998723 0.000177 -5.693394 52.861730 6.143634 -36.053604 113.680883 32.696491 0.000001 0.000002 0.000006 7.238389 11.028206 -0.141185 -0.000001 0.000005 3.000001 -5.000200 7.998733 -0.000160 3.404661 -176.190727 0.866816 -179.999991 0.000005 -1.163996 175.244349 -2.994677 -0.473019 -0.000001 0.000000 0.043605 69.017969 6.909894 2.080752 25.456947 -7.355407 -0.000000 4.446091 173.407725 -1.369892 -0.000005 -0.000004 -1.184290 -5.237344 1.472947 0.499950 -0.000000 -0.000001 -0.071844 70.054662 -6.822300 -2.259375 25.457157 7.355619 -0.007786 
50.566799 -14.802015 85.871498 -3.847410 2.124236 -1.900316 -0.968374 -0.083564 -0.007128 2.066050 -0.172677 -0.005920 3.711138 -0.172786 -0.003886 9.688209 -1.575960 0.566863 4.831648 -0.277583 0.813757 -7.159196 -58.703003 -8.405704 -34.746600 -114.674600 -27.522387 -0.000001 -0.000000 -0.000004 7.961459 -13.211399 0.435491 -0.000005 0.000001 -2.999990 -5.000211 -7.998724 0.000178 -5.698758 52.862970 6.150320 -36.073982 113.685186 32.721005 0.000001 0.000002 0.000006 7.231284 11.031059 -0.140739 -0.000001 0.000005 3.000000 -5.000201 7.998732 -0.000160 3.402346 -176.185713 0.871084 -179.999991 0.000005 -1.163996 175.242396 -2.997651 -0.472373 -0.000000 0.000000 0.043605 69.017443 6.909900 2.080687 25.456950 -7.355405 -0.000000 4.447029 173.409719 -1.368213 -0.000005 -0.000004 -1.184290 -5.234953 1.472485 0.500142 -0.000000 -0.000000 -0.071844 70.053104 -6.822087 -2.258334 25.457157 7.355618 -0.007785 
50.548100 -14.792616 85.873390 -3.847741 2.122469 -1.901282 -0.968367 -0.083966 -0.006357 2.066070 -0.172940 -0.005109 3.711157 -0.173034 -0.003067 9.681248 -1.578310 0.564833 4.842271 -0.276072 0.811764 -7.161800 -58.698543 -8.408427 -34.730610 -114.679573 -27.528502 -0.000002 0.000000 -0.000004 7.995072 -13.220660 0.440441 -0.000006 0.000001 -2.999990 -5.000211 -7.998724 0.000178 -5.704125 52.864220 6.156996 -36.094394 113.689475 32.745573 0.000000 0.000000 0.000006 7.224159 11.033904 -0.140288 0.000000 0.000005 3.000001 -5.000200 7.998733 -0.000161 3.400025 -176.181711 0.875287 -179.999991 0.000005 -1.163996 175.240442 -3.001632 -0.472806 -0.000001 -0.000000 0.043604 69.016808 6.909901 2.080726 25.456950 -7.355407 0.000000 4.447947 173.412725 -1.366451 -0.000005 -0.000004 -1.184290 -5.232561 1.472032 0.500341 0.000000 -0.000001 -0.071844 70.051643 -6.821808 -2.257275 25.457162 7.355617 -0.007786 
50.554199 -14.793314 85.870598 -3.848089 2.120712 -1.902267 -0.968355 -0.084365 -0.005593 2.066089 -0.173197 -0.004304 3.711176 -0.173275 -0.002255 9.674307 -1.580600 0.562827 4.852855 -0.274598 0.809791 -7.164342 -58.693988 -8.411084 -34.715843 -114.683726 -27.536073 -0.000002 0.000000 -0.000004 8.028842 -13.230011 0.445443 -0.000007 0.000001 -2.999990 -5.000209 -7.998724 0.000178 -5.709490 52.865463 6.163684 -36.114772 113.693778 32.770080 -0.000000 0.000004 0.000006 7.217086 11.036753 -0.139838 -0.000001 0.000005 3.000000 -5.000200 7.998733 -0.000161 3.397731 -176.176711 0.879557 -179.999991 0.000005 -1.163996 175.238489 -3.005612 -0.472243 -0.000001 0.000000 0.043605 69.016282 6.909907 2.080662 25.456950 -7.355407 0.000001 4.448897 173.414719 -1.364779 -0.000005 -0.000004 -1.184290 -5.230169 1.471580 0.500531 0.000000 -0.000001 -0.071844 70.050188 -6.821563 -2.256222 25.457155 7.355618 -0.007785 
50.561501 -14.804014 85.872101 -3.848447 2.118975 -1.903281 -0.968348 -0.084755 -0.004846 2.066110 -0.173439 -0.003514 3.711188 -0.173503 -0.001456 9.667412 -1.582742 0.560880 4.863367 -0.273216 0.807874 -7.166769 -58.689439 -8.413593 -34.699857 -114.688712 -27.542533 -0.000001 -0.000000 -0.000005 8.062973 -13.239540 0.450516 -0.000005 0.000001 -2.999990 -5.000208 -7.998724 0.000178 -5.714872 52.866709 6.170385 -36.134726 113.697979 32.794101 -0.000000 0.000001 0.000006 7.210120 11.039499 -0.139384 0.000000 0.000005 3.000000 -5.000203 7.998733 -0.000160 3.395452 -176.172709 0.883785 -179.999991 0.000005 -1.163996 175.236522 -3.008584 -0.472594 -0.000001 -0.000000 0.043605 69.015653 6.909907 2.080700 25.456950 -7.355408 0.000000 4.449848 173.417724 -1.363054 -0.000005 -0.000005 -1.184290 -5.227797 1.471128 0.500696 0.000000 -0.000001 -0.071844 70.048726 -6.821323 -2.255168 25.457158 7.355618 -0.007785 
50.555401 -14.799818 85.878304 -3.848821 2.117268 -1.904372 -0.968338 -0.085130 -0.004126 2.066120 -0.173658 -0.002747 3.711208 -0.173707 -0.000682 9.660609 -1.584647 0.559029 4.873747 -0.271980 0.806047 -7.168984 -58.684897 -8.415869 -34.684913 -114.692810 -27.550519 -0.000001 0.000000 -0.000003 8.097701 -13.249146 0.455678 -0.000008 0.000001 -2.999989 -5.000211 -7.998724 0.000178 -5.720254 52.867942 6.177097 -36.154469 113.702118 32.817799 0.000001 0.000003 0.000006 7.203359 11.042245 -0.138920 0.000001 0.000005 3.000000 -5.000202 7.998733 -0.000161 3.393229 -176.167709 0.888099 -179.999991 0.000004 -1.163996 175.234623 -3.012565 -0.472029 -0.000000 -0.000000 0.043605 69.015018 6.909910 2.080738 25.456948 -7.355408 0.000001 4.450838 173.419732 -1.361448 -0.000005 -0.000004 -1.184290 -5.225445 1.470685 0.500824 0.000001 -0.000000 -0.071844 70.047278 -6.821109 -2.254119 25.457162 7.355619 -0.007786 
50.554600 -14.771214 85.874207 -3.849219 2.115611 -1.905538 -0.968333 -0.085486 -0.003442 2.066140 -0.173846 -0.002011 3.711217 -0.173881 0.000060 9.653935 -1.586246 0.557312 4.883957 -0.270944 0.804344 -7.170971 -58.680464 -8.417868 -34.668534 -114.697687 -27.557482 -0.000002 0.000000 -0.000004 8.133222 -13.258918 0.460964 -0.000004 0.000001 -2.999990 -5.000211 -7.998723 0.000178 -5.725682 52.869288 6.183859 -36.173802 113.706148 32.840898 0.000001 0.000000 0.000006 7.196847 11.044680 -0.138425 -0.000001 0.000004 3.000000 -5.000203 7.998732 -0.000160 3.391058 -176.163706 0.892391 -179.999991 0.000005 -1.163996 175.232697 -3.016545 -0.472462 -0.000000 0.000000 0.043605 69.014492 6.909915 2.080672 25.456948 -7.355407 0.000001 4.451867 173.422724 -1.359822 -0.000005 -0.000005 -1.184290 -5.223124 1.470262 0.500901 -0.000000 -0.000001 -0.071844 70.045926 -6.820870 -2.253160 25.457162 7.355617 -0.007785 
50.559696 -14.781314 85.877800 -3.849656 2.114014 -1.906810 -0.968331 -0.085816 -0.002806 2.066140 -0.173993 -0.001316 3.711228 -0.174015 0.000759 9.647397 -1.587430 0.555759 4.893927 -0.270162 0.802796 -7.172595 -58.675969 -8.419441 -34.652975 -114.701648 -27.566051 -0.000002 0.000001 -0.000004 8.169779 -13.269044 0.466425 -0.000008 0.000001 -2.999990 -5.000209 -7.998724 0.000178 -5.731130 52.870524 6.190645 -36.191154 113.710827 32.861690 -0.000001 0.000003 0.000006 7.190675 11.047009 -0.137913 -0.000001 0.000005 3.000001 -5.000201 7.998733 -0.000160 3.388983 -176.158707 0.896792 -179.999991 0.000005 -1.163996 175.230839 -3.020526 -0.471881 -0.000001 0.000000 0.043605 69.013857 6.909917 2.080713 25.456948 -7.355407 -0.000000 4.452946 173.424732 -1.358343 -0.000005 -0.000005 -1.184290 -5.220832 1.469839 0.500912 -0.000000 -0.000000 -0.071844 70.044492 -6.820693 -2.252217 25.457160 7.355618 -0.007786 
50.547901 -14.788917 85.882202 -3.850127 2.112486 -1.908225 -0.968330 -0.086116 -0.002227 2.066150 -0.174091 -0.000672 3.711227 -0.174100 0.001410 9.641047 -1.588130 0.554416 4.903625 -0.269690 0.801441 -7.173811 -58.671373 -8.420518 -34.637238 -114.705541 -27.575239 -0.000002 0.000001 -0.000004 8.207594 -13.279421 0.472070 -0.000007 0.000001 -2.999990 -5.000212 -7.998723 0.000178 -5.736631 52.871770 6.197490 -36.209247 113.714522 32.883082 0.000000 0.000002 0.000006 7.184911 11.049135 -0.137383 -0.000000 0.000005 3.000001 -5.000202 7.998733 -0.000161 3.387003 -176.154718 0.901191 -179.999991 0.000005 -1.163996 175.228995 -3.024507 -0.472311 -0.000001 0.000000 0.043606 69.013229 6.909916 2.080754 25.456948 -7.355408 0.000000 4.454094 173.426740 -1.356955 -0.000005 -0.000005 -1.184290 -5.218601 1.469446 0.500845 -0.000000 -0.000001 -0.071844 70.043166 -6.820521 -2.251269 25.457155 7.355617 -0.007785 
50.551800 -14.776915 85.877289 -3.850648 2.111048 -1.909782 -0.968332 -0.086381 -0.001715 2.066140 -0.174132 -0.000084 3.711217 -0.174130 0.002000 9.634915 -1.588248 0.553311 4.912996 -0.269582 0.800310 -7.174553 -58.666919 -8.421045 -34.619859 -114.710158 -27.583620 -0.000002 -0.000000 -0.000002 8.246861 -13.290140 0.477938 -0.000004 0.000001 -2.999990 -5.000212 -7.998724 0.000178 -5.742175 52.873089 6.204388 -36.226483 113.718005 32.903333 0.000001 0.000003 0.000006 7.179612 11.050847 -0.136805 -0.000002 0.000005 3.000000 -5.000202 7.998733 -0.000161 3.385145 -176.150702 0.905660 -179.999991 0.000004 -1.163996 175.227205 -3.029481 -0.472821 -0.000001 0.000000 0.043605 69.012587 6.909916 2.080692 25.456948 -7.355407 0.000000 4.455323 173.428735 -1.355671 -0.000005 -0.000005 -1.184290 -5.216418 1.469073 0.500684 0.000000 -0.000001 -0.071844 70.041958 -6.820384 -2.250319 25.457160 7.355617 -0.007785 
